$MeshFormat
2.2 0 8
$EndMeshFormat
$PhysicalNames
4
1 1 "Inlet"
1 2 "Outlet"
1 3 "Wall"
2 1 "Domain"
$EndPhysicalNames
$Nodes
427
1 -4 -2 0
2 4 -2 0
3 4 2 0
4 -4 2 0
5 1 0 0
6 -3.5 -2 0
7 -3 -2 0
8 -2.5 -2 0
9 -2 -2 0
10 -1.5 -2 0
11 -1 -2 0
12 -0.5 -2 0
13 0 -2 0
14 0.5 -2 0
15 1 -2 0
16 1.5 -2 0
17 2 -2 0
18 2.5 -2 0
19 3 -2 0
20 3.5 -2 0
21 4 -1.5 0
22 4 -1 0
23 4 -0.5 0
24 4 0 0
25 4 0.5 0
26 4 1 0
27 4 1.5 0
28 3.5 2 0
29 3 2 0
30 2.5 2 0
31 2 2 0
32 1.5 2 0
33 1 2 0
34 0.5 2 0
35 0 2 0
36 -0.5 2 0
37 -1 2 0
38 -1.5 2 0
39 -2 2 0
40 -2.5 2 0
41 -3 2 0
42 -3.5 2 0
43 -4 1.5 0
44 -4 1 0
45 -4 0.5 0
46 -4 0 0
47 -4 -0.5 0
48 -4 -1 0
49 -4 -1.5 0
50 0.9837744790915367 0.1794095156009727 0
51 0.9527670020368108 0.3037022222997187 0
52 0.9127048312434906 0.4086194941810674 0
53 0.8447237120961901 0.5352026253882103 0
54 0.7786179747572429 0.6274982465194061 0
55 0.6935285838404543 0.7204291105974646 0
56 0.5876805128194442 0.8090930816984379 0
57 0.4960851191513281 0.8682738937435656 0
58 0.3695213294911941 0.9292222484696868 0
59 0.2532547703108222 0.9673996182110125 0
60 0.139369753376242 0.990240411134511 0
61 -0.003464011463885694 0.9999940002942908 0
62 -0.1138865834143797 0.9934937574631254 0
63 -0.2436508184147239 0.9698630205785945 0
64 -0.3701884082490636 0.9289566956527223 0
65 -0.4701940214436174 0.8825630754788459 0
66 -0.5911897334294467 0.8065325158278616 0
67 -0.6813496289025609 0.7319581157377398 0
68 -0.765003069947051 0.6440266321912373 0
69 -0.8479979540241299 0.5299994999723016 0
70 -0.9007135033732804 0.4344136103312505 0
71 -0.9517209421220144 0.3069645717772415 0
72 -0.9829603559686494 0.1838176775883811 0
73 -0.9974151322562664 0.07185439406337261 0
74 -0.9974151322562729 -0.07185439406328378 0
75 -0.9829603559686627 -0.1838176775883101 0
76 -0.9517209421220457 -0.3069645717771445 0
77 -0.9007135033733145 -0.4344136103311799 0
78 -0.8479979540241736 -0.5299994999722317 0
79 -0.7650030699471135 -0.6440266321911631 0
80 -0.6813496289026105 -0.7319581157376936 0
81 -0.5911897334295158 -0.8065325158278109 0
82 -0.4701940214436901 -0.8825630754788072 0
83 -0.3701884082491195 -0.9289566956527001 0
84 -0.2436508184147979 -0.9698630205785759 0
85 -0.1138865834144373 -0.9934937574631189 0
86 -0.00346401146395233 -0.9999940002942905 0
87 0.1393697533761797 -0.9902404111345198 0
88 0.253254770310782 -0.9673996182110229 0
89 0.3695213294911321 -0.9292222484697115 0
90 0.4960851191512874 -0.8682738937435888 0
91 0.5876805128194172 -0.8090930816984574 0
92 0.6935285838404396 -0.7204291105974788 0
93 0.778617974757234 -0.6274982465194172 0
94 0.8447237120961852 -0.5352026253882181 0
95 0.9127048312434849 -0.40861949418108 0
96 0.9527670020368049 -0.3037022222997373 0
97 0.9837744790915328 -0.1794095156009936 0
98 -1.09059762876026 0.1464291338996903 0
99 -1.067313776437043 -0.2715670364242959 0
100 1.116862257832822 -0.1068451459703676 0
101 1.080864171984447 0.2579308998196684 0
102 -0.9663069423493655 -0.5270654306006103 0
103 -0.811141249293834 -0.7569248140660392 0
104 -1.015750030841331 0.4050790156195678 0
105 -0.887206551384218 0.64575512381719 0
106 -0.705305839353253 0.8633556511851646 0
107 0.974542058228254 -0.5144495665209979 0
108 0.8158314754500864 -0.7520148683990837 0
109 0.5926679913093329 -0.9280487093869436 0
110 -0.5830463909743854 -0.9278652363015659 0
111 0.9648651542287003 0.5181781520585299 0
112 0.8124870610931598 0.7442149836986188 0
113 0.6088461472144638 0.9211782305242942 0
114 -3.566987298107782 0.2500000000000013 0
115 3.598279046484664 0.2532361975736038 0
116 -2.204363984933354 -1.560487060315378 0
117 -2.212746614815284 1.60265867180975 0
118 2.220020640263709 1.583255296460745 0
119 2.200597172178718 -1.605681213651792 0
120 -0.459101044412198 1.008677716652092 0
121 -3.57098548188406 -0.7161352985970687 0
122 3.601573908072122 -0.7423492425069125 0
123 0.3609817023361426 1.056154503914412 0
124 0.3476561452613068 -1.053231996206962 0
125 -0.341061194884143 -1.050233776680034 0
126 -0.1975823029331997 1.084990134459866 0
127 -0.07606870875329119 -1.103645739779551 0
128 0.07464251752705216 1.093081902557272 0
129 -1.231759604900343 1.590525770060315 0
130 -1.249999999999999 -1.566987298107781 0
131 1.260297415346865 -1.588068031281314 0
132 1.168816244872126 1.612343562061333 0
133 3.248238361693254 1.617728137509787 0
134 -3.239976568164645 1.619503514431903 0
135 -3.259532570168389 -1.611280993814026 0
136 3.248048772055765 -1.466124951970984 0
137 0.3045342588300256 -1.643518728597358 0
138 1.081470786664049 -0.2668759154398136 0
139 1.243922256301807 -0.2398540189120552 0
140 1.292670979240095 -0.05543790651149716 0
141 1.433922134010897 -0.2209812917100747 0
142 1.502401858244056 -0.02100177438068157 0
143 1.665092944455312 -0.2067492921981903 0
144 1.748934996868269 0.03491423104132702 0
145 1.930557404929806 -0.1767661325455459 0
146 2.036649522080338 0.1006031884154902 0
147 1.786697208857112 0.3219573021765293 0
148 1.588444424420611 -0.4360738449373801 0
149 2.14268006871492 0.3976243198864806 0
150 2.234797328167528 -0.1387019438277856 0
151 2.119026582674669 -0.440908639385204 0
152 2.454247100625392 -0.405537465326557 0
153 1.926434519177916 0.6350201648666804 0
154 2.266596889722335 0.7139643844848298 0
155 2.498891136597657 0.4511823450055227 0
156 1.60942173599313 0.5828154193869826 0
157 1.696806521271552 0.8490088613766277 0
158 1.409121323564204 0.7791021130928614 0
159 2.624648167071919 0.7982672243594412 0
160 2.317334125862073 -0.7247886230939008 0
161 2.684148538235711 -0.6893713895124942 0
162 2.832285609955941 -0.3200473176164517 0
163 1.174176788854526 -0.3870966405203389 0
164 1.95743459640246 -0.7670249600744095 0
165 1.329164616213558 0.515352986295964 0
166 1.352471783145935 0.1461824824200457 0
167 2.876925269750109 0.5045406926202288 0
168 2.991127562792127 0.8703885275375559 0
169 0.200097937359717 1.65329505515432 0
170 -0.1893733491195944 1.598659563465609 0
171 -0.6075885384522142 1.487347691812625 0
172 1.149787189090868 0.7249269832976502 0
173 1.218965991705132 0.9590515048980834 0
174 2.746869934765319 1.157012960859896 0
175 -1.100662913290729 0.01195580435252197 0
176 -1.209005926167636 0.09810326044288747 0
177 -1.215749354511964 -0.05022308235979622 0
178 -1.344639216388667 0.04913649642186263 0
179 -1.357674532887389 -0.1154489992310916 0
180 -1.501135606798122 -0.005976838007177687 0
181 -1.469774888452914 0.1675301059655212 0
182 -1.646628493232503 0.1094413414217876 0
183 -1.527247822250587 -0.1836584675822263 0
184 -1.605821502118167 0.31688773438086 0
185 -1.824580933846909 0.2312574451027106 0
186 -1.778242433383376 0.4664309113646248 0
187 -2.016555865172764 0.390661270759764 0
188 -2.058738252677662 0.1263735037120891 0
189 -2.275950518372049 0.300039506218838 0
190 -2.310275303886537 0.01807689571399435 0
191 -1.548091852881191 0.5386863042603552 0
192 -1.724042420666075 0.7062219796086239 0
193 -1.488831790835874 0.774816346056442 0
194 -2.225760938780676 0.5880285311958212 0
195 -2.523061081996429 0.4879536254547957 0
196 -2.098909372361428 -0.1600080922565549 0
197 -2.346552338502445 -0.2767238093626427 0
198 -2.115938995614514 -0.4718614628671089 0
199 -2.385882175816297 -0.5975283738794492 0
200 -2.576707222468501 -0.1348162806942323 0
201 -1.680812808159752 0.9790973804611633 0
202 -1.343806362979873 -0.3214279346476531 0
203 -1.547460051227901 -0.3819533205987794 0
204 -1.3821854330209 -0.5186539671927275 0
205 -1.580811572703018 -0.5964948916680455 0
206 -1.388719199272399 -0.7318323381923214 0
207 -1.622360094531043 -0.8385912996535457 0
208 -1.184579881529399 0.2289137397448895 0
209 -2.46399226625652 0.8163826558651657 0
210 -2.814043558239331 0.6976861415442871 0
211 -2.132747040811466 -0.7941650852592215 0
212 -2.439092357132364 -0.9349363536916234 0
213 -2.733874207578089 -0.7055889356874827 0
214 -1.405870003153393 -0.9818718652508773 0
215 -1.644896611604415 -1.068528999411051 0
216 -1.341168853488781 0.6037465018555322 0
217 -1.25700959829444 0.8310694063475317 0
218 -1.159299637878989 -0.8373866800342973 0
219 -2.75215631971193 1.080903376561194 0
220 -3.156872114121895 0.9240152385343021 0
221 -2.847475963325239 0.3345689720774779 0
222 -2.149463485138031 0.8904440422733857 0
223 0.7894910677821442 1.62686958968354 0
224 -1.169175477691924 -1.191473978716 0
225 -0.9368835780007638 -1.013626111868411 0
226 -0.925816904312028 -1.23965913764006 0
227 0.6887029444591115 -1.618715688317274 0
228 -2.765719529013415 -1.098143236609374 0
229 2.532294438672138 -1.014879712665772 0
230 2.923926822031441 -1.043986305126407 0
231 -1.709773649537922 -1.616447935065521 0
232 -0.7383958695633883 -1.168301312719889 0
233 -0.7591888179343952 -1.405662950151064 0
234 -0.5201784556542527 -1.280283868630177 0
235 -0.2428762168609983 -1.642192808302126 0
236 1.146229432479705 0.09130126819884476 0
237 -1.208401610641336 -0.6194727858402581 0
238 -1.711708636632086 -0.2460119461216894 0
239 -0.9618519170534943 0.5313577424585575 0
240 -1.029296338656779 0.6506502088927724 0
241 -0.9538202896101622 0.7850907435822898 0
242 0.06925995009760003 -1.102843073844581 0
243 2.79349202415471e-05 -1.230882296740129 0
244 -0.173739799067143 -1.224633213438824 0
245 -0.5814520257124132 0.9437855754206055 0
246 -0.7254807374646819 1.013481841982429 0
247 -1.696314405747023 1.578896784088329 0
248 1.778385178106504 1.583375488328565 0
249 1.553557110483538 1.293040272237635 0
250 -0.8965834800704453 -0.6456576687036588 0
251 1.734133238795525 -1.606008405845989 0
252 1.51200835129872 -1.247833086445404 0
253 1.163764043959525 -1.1982098032071 0
254 1.354504341401035 -0.9439962121604301 0
255 1.071380526421484 -0.9353618692153142 0
256 0.8786675109131354 -1.10922389178332 0
257 1.196288108989131 -0.7518591319696092 0
258 0.4762817894192133 -0.9890345438509363 0
259 0.4749062524489156 -1.147251354074364 0
260 0.3045260408338268 -1.207674161851063 0
261 0.4904649968536403 0.9970028546215494 0
262 0.6225001667724084 1.072251256123341 0
263 0.7467559206608947 0.9701115314712064 0
264 0.7832077090240419 1.139310840303807 0
265 0.6361590191980848 1.288807514719427 0
266 -0.3945416196528503 1.347837472967813 0
267 2.033127084221548 1.259795872175351 0
268 1.928182023767811 -1.208465940534043 0
269 -0.5825847627929426 1.098668633082892 0
270 -0.7226093730338204 1.21651438628118 0
271 -0.9106766631075005 1.105212340120616 0
272 -2.730294876715791 1.535670234541542 0
273 -1.092619820650726 -0.131305358754606 0
274 0.7074904691573817 -0.8503754096398296 0
275 -1.020663127392693 -0.4059517963961282 0
276 -1.157998835121387 -0.3709554992484078 0
277 -0.9501803640347911 -0.7971764489593611 0
278 1.018958020205471 0.9114967827545039 0
279 -1.377450990039317 0.3859575642591521 0
280 1.037427363000066 0.3933235242095843 0
281 1.181310177924568 0.3680893273772467 0
282 -0.4664723206466194 -0.9995791837038152 0
283 2.755418557801735 0.1329908011714938 0
284 -3.579044691551928 0.7291159819478908 0
285 -0.06228836679189464 1.102043709587066 0
286 0.006269981625309092 1.229605250278399 0
287 0.1757995228544426 1.231448001605807 0
288 -0.9305771459355561 1.376085165309222 0
289 -1.168818725880525 1.200608831802022 0
290 -2.74149723296991 -1.56095550144921 0
291 -0.3360784909055119 1.054999638522687 0
292 0.9049946485652935 -0.6380606471599461 0
293 1.026249179961492 -0.3929276603449353 0
294 -1.201790993571363 -0.2136320930046929 0
295 0.8971288688585186 0.6384868340617456 0
296 2.777368781572719 -1.400618278540604 0
297 1.116312587190604 0.527235281919066 0
298 -0.7049611038421162 -0.8529602418981175 0
299 0.8569206168339181 -0.9040548209866945 0
300 -3.577865519523313 -0.243476312768023 0
301 -3.176203110130697 -0.006864045378891126 0
302 -3.1690833936201 -0.4548091828638432 0
303 -2.170875066805765 -1.140971437827503 0
304 0.222579874795122 1.09363035371009 0
305 0.2120196274312435 -1.089418745683463 0
306 3.589894334351178 -0.238347508461018 0
307 3.183627326670036 0.01250012581181781 0
308 1.499807333375886 0.3461499542892045 0
309 -1.2257645241857 0.4760400668285117 0
310 1.03519541310724 1.117575412549182 0
311 -0.8095815143581964 0.7652553177126479 0
312 -0.5341075004699651 -1.566339403156361 0
313 -1.945675208448053 1.18698429930871 0
314 3.599114494340918 0.7473675159228783 0
315 0.431631133382607 -1.371503983511621 0
316 0.6656226745050762 -1.241558285938372 0
317 0.9152982203324624 -1.405852979365944 0
318 -1.856316562702456 -0.6358577867838202 0
319 1.449348560618918 -0.6680983250413733 0
320 -1.397885827568336 1.054414942175011 0
321 -1.618661433176311 1.22940557684058 0
322 -3.532505976412951 1.232707032379611 0
323 3.575548402985 1.230889730463326 0
324 -3.104514834381169 -0.8592747863854056 0
325 0.7152896843707862 -1.013059033805776 0
326 -1.8550048623772 -0.03336945723778062 0
327 -3.527085804408408 -1.220777892492405 0
328 -3.21014166492472 0.5376250983783462 0
329 3.631002258734023 -1.223046139361188 0
330 0.327772776398551 1.203205337155124 0
331 2.372215388337954 1.14920579275681 0
332 1.656116387855159 -0.9159826360713668 0
333 3.251513596783599 -0.496861240140192 0
334 -1.058732171276313 0.2731633716398622 0
335 -2.375721461847601 1.185507213393291 0
336 2.36260065553006 0.1445501307303071 0
337 2.741496404061632 1.53451748558206 0
338 -0.5781678261020577 -1.085189725243239 0
339 -0.8648036819222004 0.9213456831442016 0
340 -0.8222291975188926 -0.8843207839878461 0
341 -0.9099309205372921 1.668871123986251 0
342 -1.510338230307205 -1.291625449947392 0
343 -1.053377150281863 0.9450967767539945 0
344 1.060545902740589 -0.6194729222069065 0
345 -2.84993652825587 -0.2792865315909568 0
346 -1.958408352041355 0.6280151363716739 0
347 -2.472038448788211 -1.275172373362789 0
348 -1.891975048043464 -0.9509685801808677 0
349 -2.568182650913088 0.1730884052352082 0
350 1.027904621513251 0.6401449410266496 0
351 1.831115554872627 -0.4395336674175016 0
352 0.9310794517270133 1.349198676158315 0
353 -1.043658940479454 -0.6574149280960103 0
354 0.1571001489450876 -1.372044980875698 0
355 -1.088715014420673 0.5118507499173564 0
356 -1.305282139130727 0.2109463042784142 0
357 0.9721589462393334 -0.7726655724882922 0
358 -1.648345084258099 -0.0719150735054172 0
359 3.267227128826198 0.4999999999999988 0
360 0.7090469254431895 0.8420995560476746 0
361 0.08445823593977635 1.404643532819005 0
362 0.4887626674415097 1.538563758087147 0
363 -1.855370431872021 -1.271504910457952 0
364 0.1485867404455994 -1.200572651798987 0
365 -0.1444675841648708 1.220937887632122 0
366 0.4798516750877334 1.153609724327314 0
367 -0.4529342273507406 -1.134192446956679 0
368 -0.2904690837338362 1.200379695601418 0
369 -0.2076429866849867 -1.087693800141543 0
370 1.266358223754265 1.268868295967836 0
371 -1.73264851912239 -0.4554919996924887 0
372 -0.112220082403625 -1.389339295015173 0
373 -0.3174661295197421 -1.382333487589282 0
374 2.184546386214324 -0.9988111924722453 0
375 2.527869850416131 -0.1173491589737987 0
376 -0.8431343599053162 -1.665587215090929 0
377 -1.106740038707756 -0.5112650696155977 0
378 1.094778767983091 -0.4898281397264957 0
379 -0.7178271253705648 -0.99468888759758 0
380 2.018313522435505 0.945075409324154 0
381 -3.017599701142678 1.2903393030983 0
382 1.218083314345261 0.2328918151453508 0
383 1.322717760686235 0.3115562281122816 0
384 -3.079669994188259 -1.270086482150083 0
385 -1.172843045799669 0.6402014674172591 0
386 -1.097798827435587 0.7741957284546813 0
387 3.103130503371197 1.234420211487188 0
388 0.5849536784106653 -1.063790385411278 0
389 -1.917734668091297 -0.3434311881654625 0
390 1.471243369049247 1.041539520063709 0
391 -0.3216747226624683 -1.191212336993033 0
392 -0.9969050345569627 -1.425491122566652 0
393 1.368104165527456 -0.391297337336653 0
394 -2.803701095018678 0.01733810392972135 0
395 1.578062636098252 0.1656404391092849 0
396 -1.896381464059389 0.8719995131890771 0
397 -3.633974596215564 1.633974596215563 0
398 3.633974596215563 1.633974596215561 0
399 -3.633974596215561 -1.633974596215561 0
400 3.663857174745845 -1.636731469109042 0
401 0.9518179885812417 0.7599438931519263 0
402 1.223873715785618 -0.5512754161335628 0
403 -1.131807884284468 0.3698531762518865 0
404 -1.246241932206426 0.3360366588361721 0
405 0.88834078399335 1.002875341014475 0
406 3.2888832681444 -0.9698497341521197 0
407 0.02130762170209893 -1.609419162558071 0
408 -0.5488540836875991 1.260701433308826 0
409 -0.4352715141974892 1.161877431689288 0
410 -0.09045233273679676 1.362107828611582 0
411 -1.222686205808464 1.01817122493861 0
412 0.8545677833295516 0.8717903480230678 0
413 0.9734189894180489 -1.70067833090849 0
414 -1.390865666503625 1.341488670160782 0
415 2.341266056523784 -1.291701941804844 0
416 1.696491904833955 -0.6453426867084062 0
417 1.758572130927983 1.16197257058434 0
418 0.2827241455364403 1.386969639289372 0
419 3.333090061173238 0.9903248425177917 0
420 -1.242477748313513 -0.4819468334567663 0
421 2.572293481541259 -1.669586204376689 0
422 0.4430540567324643 1.314231194715676 0
423 2.996151567030219 -0.7040231973095328 0
424 -2.568125420308056 -0.406348457561668 0
425 1.471279793786376 1.54236323231812 0
426 -0.227413897404281 1.343236522947476 0
427 3.020799570762019 0.287507904900885 0
$EndNodes
$Elements
854
1 1 2 3 1 1 6
2 1 2 3 1 6 7
3 1 2 3 1 7 8
4 1 2 3 1 8 9
5 1 2 3 1 9 10
6 1 2 3 1 10 11
7 1 2 3 1 11 12
8 1 2 3 1 12 13
9 1 2 3 1 13 14
10 1 2 3 1 14 15
11 1 2 3 1 15 16
12 1 2 3 1 16 17
13 1 2 3 1 17 18
14 1 2 3 1 18 19
15 1 2 3 1 19 20
16 1 2 3 1 20 2
17 1 2 2 2 2 21
18 1 2 2 2 21 22
19 1 2 2 2 22 23
20 1 2 2 2 23 24
21 1 2 2 2 24 25
22 1 2 2 2 25 26
23 1 2 2 2 26 27
24 1 2 2 2 27 3
25 1 2 3 3 3 28
26 1 2 3 3 28 29
27 1 2 3 3 29 30
28 1 2 3 3 30 31
29 1 2 3 3 31 32
30 1 2 3 3 32 33
31 1 2 3 3 33 34
32 1 2 3 3 34 35
33 1 2 3 3 35 36
34 1 2 3 3 36 37
35 1 2 3 3 37 38
36 1 2 3 3 38 39
37 1 2 3 3 39 40
38 1 2 3 3 40 41
39 1 2 3 3 41 42
40 1 2 3 3 42 4
41 1 2 1 4 4 43
42 1 2 1 4 43 44
43 1 2 1 4 44 45
44 1 2 1 4 45 46
45 1 2 1 4 46 47
46 1 2 1 4 47 48
47 1 2 1 4 48 49
48 1 2 1 4 49 1
49 1 2 3 5 5 50
50 1 2 3 5 50 51
51 1 2 3 5 51 52
52 1 2 3 5 52 53
53 1 2 3 5 53 54
54 1 2 3 5 54 55
55 1 2 3 5 55 56
56 1 2 3 5 56 57
57 1 2 3 5 57 58
58 1 2 3 5 58 59
59 1 2 3 5 59 60
60 1 2 3 5 60 61
61 1 2 3 5 61 62
62 1 2 3 5 62 63
63 1 2 3 5 63 64
64 1 2 3 5 64 65
65 1 2 3 5 65 66
66 1 2 3 5 66 67
67 1 2 3 5 67 68
68 1 2 3 5 68 69
69 1 2 3 5 69 70
70 1 2 3 5 70 71
71 1 2 3 5 71 72
72 1 2 3 5 72 73
73 1 2 3 5 73 74
74 1 2 3 5 74 75
75 1 2 3 5 75 76
76 1 2 3 5 76 77
77 1 2 3 5 77 78
78 1 2 3 5 78 79
79 1 2 3 5 79 80
80 1 2 3 5 80 81
81 1 2 3 5 81 82
82 1 2 3 5 82 83
83 1 2 3 5 83 84
84 1 2 3 5 84 85
85 1 2 3 5 85 86
86 1 2 3 5 86 87
87 1 2 3 5 87 88
88 1 2 3 5 88 89
89 1 2 3 5 89 90
90 1 2 3 5 90 91
91 1 2 3 5 91 92
92 1 2 3 5 92 93
93 1 2 3 5 93 94
94 1 2 3 5 94 95
95 1 2 3 5 95 96
96 1 2 3 5 96 97
97 1 2 3 5 97 5
98 2 2 1 3 344 357 257
99 2 2 1 3 331 337 118
100 2 2 1 3 251 252 131
101 2 2 1 3 276 294 202
102 2 2 1 3 170 361 169
103 2 2 1 3 174 337 331
104 2 2 1 3 215 363 342
105 2 2 1 3 224 342 130
106 2 2 1 3 230 296 136
107 2 2 1 3 171 266 170
108 2 2 1 3 277 353 218
109 2 2 1 3 136 406 230
110 2 2 1 3 202 420 276
111 2 2 1 3 130 392 224
112 2 2 1 3 221 328 301
113 2 2 1 3 117 313 247
114 2 2 1 3 16 251 131
115 2 2 1 3 179 294 177
116 2 2 1 3 270 408 171
117 2 2 1 3 177 294 273
118 2 2 1 3 117 247 39
119 2 2 1 3 35 170 169
120 2 2 1 3 227 315 137
121 2 2 1 3 313 396 201
122 2 2 1 3 252 253 131
123 2 2 1 3 296 421 19
124 2 2 1 3 136 296 19
125 2 2 1 3 175 273 74
126 2 2 1 3 36 341 171
127 2 2 1 3 36 171 170
128 2 2 1 3 393 402 319
129 2 2 1 3 177 273 175
130 2 2 1 3 224 392 226
131 2 2 1 3 231 363 116
132 2 2 1 3 171 288 270
133 2 2 1 3 9 231 116
134 2 2 1 3 219 335 272
135 2 2 1 3 166 236 140
136 2 2 1 3 218 353 237
137 2 2 1 3 140 236 100
138 2 2 1 3 272 335 117
139 2 2 1 3 301 328 114
140 2 2 1 3 257 357 255
141 2 2 1 3 162 307 283
142 2 2 1 3 73 175 74
143 2 2 1 3 225 277 218
144 2 2 1 3 254 255 253
145 2 2 1 3 202 294 179
146 2 2 1 3 14 227 137
147 2 2 1 3 130 342 231
148 2 2 1 3 158 165 156
149 2 2 1 3 33 223 132
150 2 2 1 3 169 362 34
151 2 2 1 3 181 356 279
152 2 2 1 3 201 321 313
153 2 2 1 3 252 254 253
154 2 2 1 3 158 172 165
155 2 2 1 3 181 279 184
156 2 2 1 3 35 169 34
157 2 2 1 3 121 327 324
158 2 2 1 3 342 363 231
159 2 2 1 3 352 370 132
160 2 2 1 3 14 137 13
161 2 2 1 3 308 395 147
162 2 2 1 3 15 413 227
163 2 2 1 3 218 237 206
164 2 2 1 3 327 384 324
165 2 2 1 3 137 407 13
166 2 2 1 3 119 268 251
167 2 2 1 3 172 297 165
168 2 2 1 3 337 387 133
169 2 2 1 3 223 352 132
170 2 2 1 3 345 394 301
171 2 2 1 3 225 379 340
172 2 2 1 3 255 256 253
173 2 2 1 3 156 308 147
174 2 2 1 3 310 370 352
175 2 2 1 3 34 362 223
176 2 2 1 3 260 354 315
177 2 2 1 3 38 247 129
178 2 2 1 3 191 279 216
179 2 2 1 3 220 322 284
180 2 2 1 3 371 389 318
181 2 2 1 3 235 312 12
182 2 2 1 3 267 331 118
183 2 2 1 3 213 345 302
184 2 2 1 3 248 267 118
185 2 2 1 3 255 299 256
186 2 2 1 3 29 337 133
187 2 2 1 3 254 257 255
188 2 2 1 3 313 335 222
189 2 2 1 3 302 345 301
190 2 2 1 3 220 381 322
191 2 2 1 3 249 417 248
192 2 2 1 3 162 333 307
193 2 2 1 3 174 387 337
194 2 2 1 3 130 231 10
195 2 2 1 3 326 389 238
196 2 2 1 3 184 279 191
197 2 2 1 3 300 301 114
198 2 2 1 3 11 130 10
199 2 2 1 3 164 332 268
200 2 2 1 3 129 289 288
201 2 2 1 3 38 129 37
202 2 2 1 3 16 131 15
203 2 2 1 3 318 389 198
204 2 2 1 3 165 297 281
205 2 2 1 3 33 132 32
206 2 2 1 3 31 248 118
207 2 2 1 3 94 107 95
208 2 2 1 3 227 316 315
209 2 2 1 3 117 335 313
210 2 2 1 3 119 251 17
211 2 2 1 3 13 235 12
212 2 2 1 3 222 396 313
213 2 2 1 3 36 170 35
214 2 2 1 3 253 317 131
215 2 2 1 3 211 318 198
216 2 2 1 3 232 379 225
217 2 2 1 3 302 324 213
218 2 2 1 3 131 413 15
219 2 2 1 3 191 216 193
220 2 2 1 3 78 250 79
221 2 2 1 3 46 300 114
222 2 2 1 3 34 223 33
223 2 2 1 3 237 420 204
224 2 2 1 3 97 100 5
225 2 2 1 3 65 245 66
226 2 2 1 3 86 242 87
227 2 2 1 3 279 309 216
228 2 2 1 3 228 384 290
229 2 2 1 3 301 394 221
230 2 2 1 3 247 414 129
231 2 2 1 3 185 326 182
232 2 2 1 3 25 314 115
233 2 2 1 3 15 227 14
234 2 2 1 3 248 417 267
235 2 2 1 3 134 272 41
236 2 2 1 3 37 341 36
237 2 2 1 3 251 268 252
238 2 2 1 3 224 225 218
239 2 2 1 3 40 117 39
240 2 2 1 3 206 237 204
241 2 2 1 3 147 395 144
242 2 2 1 3 153 156 147
243 2 2 1 3 376 392 130
244 2 2 1 3 283 375 162
245 2 2 1 3 148 393 319
246 2 2 1 3 9 116 8
247 2 2 1 3 31 118 30
248 2 2 1 3 165 308 156
249 2 2 1 3 79 250 103
250 2 2 1 3 256 325 316
251 2 2 1 3 7 290 135
252 2 2 1 3 52 111 53
253 2 2 1 3 81 110 82
254 2 2 1 3 132 425 32
255 2 2 1 3 23 306 122
256 2 2 1 3 265 352 223
257 2 2 1 3 97 138 100
258 2 2 1 3 115 359 307
259 2 2 1 3 121 302 300
260 2 2 1 3 32 248 31
261 2 2 1 3 18 119 17
262 2 2 1 3 17 251 16
263 2 2 1 3 157 158 156
264 2 2 1 3 319 402 257
265 2 2 1 3 40 272 117
266 2 2 1 3 234 338 232
267 2 2 1 3 115 307 306
268 2 2 1 3 356 404 279
269 2 2 1 3 204 420 202
270 2 2 1 3 359 427 307
271 2 2 1 3 39 247 38
272 2 2 1 3 57 261 58
273 2 2 1 3 116 290 8
274 2 2 1 3 70 104 71
275 2 2 1 3 300 302 301
276 2 2 1 3 313 321 247
277 2 2 1 3 196 389 326
278 2 2 1 3 46 114 45
279 2 2 1 3 116 363 303
280 2 2 1 3 290 384 135
281 2 2 1 3 316 317 256
282 2 2 1 3 166 382 236
283 2 2 1 3 284 328 220
284 2 2 1 3 25 115 24
285 2 2 1 3 216 217 193
286 2 2 1 3 115 306 24
287 2 2 1 3 214 218 206
288 2 2 1 3 114 284 45
289 2 2 1 3 60 128 61
290 2 2 1 3 325 388 316
291 2 2 1 3 170 410 361
292 2 2 1 3 68 105 69
293 2 2 1 3 50 236 101
294 2 2 1 3 91 274 92
295 2 2 1 3 10 231 9
296 2 2 1 3 32 425 248
297 2 2 1 3 307 333 306
298 2 2 1 3 11 376 130
299 2 2 1 3 268 374 164
300 2 2 1 3 121 300 47
301 2 2 1 3 129 341 37
302 2 2 1 3 121 324 302
303 2 2 1 3 281 383 165
304 2 2 1 3 5 236 50
305 2 2 1 3 76 275 77
306 2 2 1 3 226 232 225
307 2 2 1 3 210 328 221
308 2 2 1 3 329 406 136
309 2 2 1 3 322 381 134
310 2 2 1 3 173 278 172
311 2 2 1 3 108 292 93
312 2 2 1 3 26 314 25
313 2 2 1 3 13 407 235
314 2 2 1 3 272 381 219
315 2 2 1 3 119 415 268
316 2 2 1 3 100 236 5
317 2 2 1 3 320 411 289
318 2 2 1 3 47 300 46
319 2 2 1 3 93 292 94
320 2 2 1 3 256 317 253
321 2 2 1 3 66 245 106
322 2 2 1 3 188 326 185
323 2 2 1 3 264 352 265
324 2 2 1 3 223 362 265
325 2 2 1 3 114 328 284
326 2 2 1 3 321 414 247
327 2 2 1 3 227 317 316
328 2 2 1 3 48 121 47
329 2 2 1 3 23 122 22
330 2 2 1 3 92 274 108
331 2 2 1 3 24 306 23
332 2 2 1 3 44 322 43
333 2 2 1 3 89 258 90
334 2 2 1 3 41 272 40
335 2 2 1 3 42 134 41
336 2 2 1 3 29 133 28
337 2 2 1 3 45 284 44
338 2 2 1 3 8 290 7
339 2 2 1 3 51 280 52
340 2 2 1 3 225 340 277
341 2 2 1 3 278 401 172
342 2 2 1 3 242 305 87
343 2 2 1 3 7 135 6
344 2 2 1 3 220 328 210
345 2 2 1 3 289 414 320
346 2 2 1 3 20 136 19
347 2 2 1 3 306 333 122
348 2 2 1 3 284 322 44
349 2 2 1 3 243 372 354
350 2 2 1 3 52 280 111
351 2 2 1 3 58 261 123
352 2 2 1 3 26 323 314
353 2 2 1 3 249 425 370
354 2 2 1 3 333 423 406
355 2 2 1 3 153 157 156
356 2 2 1 3 158 173 172
357 2 2 1 3 250 277 103
358 2 2 1 3 194 346 222
359 2 2 1 3 151 164 160
360 2 2 1 3 233 234 232
361 2 2 1 3 55 360 56
362 2 2 1 3 59 304 60
363 2 2 1 3 299 325 256
364 2 2 1 3 190 196 188
365 2 2 1 3 27 323 26
366 2 2 1 3 415 421 296
367 2 2 1 3 359 419 168
368 2 2 1 3 75 99 76
369 2 2 1 3 104 334 71
370 2 2 1 3 307 427 283
371 2 2 1 3 266 426 170
372 2 2 1 3 171 341 288
373 2 2 1 3 49 327 48
374 2 2 1 3 22 329 21
375 2 2 1 3 134 381 272
376 2 2 1 3 315 354 137
377 2 2 1 3 99 275 76
378 2 2 1 3 138 139 100
379 2 2 1 3 81 298 110
380 2 2 1 3 196 326 188
381 2 2 1 3 155 283 167
382 2 2 1 3 80 298 81
383 2 2 1 3 290 347 228
384 2 2 1 3 48 327 121
385 2 2 1 3 171 408 266
386 2 2 1 3 155 336 283
387 2 2 1 3 151 351 164
388 2 2 1 3 248 425 249
389 2 2 1 3 214 224 218
390 2 2 1 3 122 329 22
391 2 2 1 3 289 343 271
392 2 2 1 3 268 332 252
393 2 2 1 3 216 385 217
394 2 2 1 3 184 191 186
395 2 2 1 3 30 337 29
396 2 2 1 3 142 166 140
397 2 2 1 3 71 334 72
398 2 2 1 3 370 425 132
399 2 2 1 3 167 359 168
400 2 2 1 3 72 334 98
401 2 2 1 3 229 415 296
402 2 2 1 3 191 193 192
403 2 2 1 3 200 394 345
404 2 2 1 3 19 421 18
405 2 2 1 3 67 311 68
406 2 2 1 3 288 341 129
407 2 2 1 3 118 337 30
408 2 2 1 3 165 383 308
409 2 2 1 3 194 222 209
410 2 2 1 3 99 276 275
411 2 2 1 3 314 359 115
412 2 2 1 3 197 198 196
413 2 2 1 3 172 401 350
414 2 2 1 3 146 147 144
415 2 2 1 3 107 293 95
416 2 2 1 3 68 311 105
417 2 2 1 3 75 273 99
418 2 2 1 3 333 406 122
419 2 2 1 3 254 319 257
420 2 2 1 3 99 294 276
421 2 2 1 3 303 347 116
422 2 2 1 3 159 331 154
423 2 2 1 3 183 202 179
424 2 2 1 3 138 293 163
425 2 2 1 3 199 211 198
426 2 2 1 3 50 101 51
427 2 2 1 3 348 363 215
428 2 2 1 3 70 239 104
429 2 2 1 3 149 153 147
430 2 2 1 3 168 174 159
431 2 2 1 3 261 366 123
432 2 2 1 3 129 414 289
433 2 2 1 3 72 98 73
434 2 2 1 3 161 162 152
435 2 2 1 3 326 358 182
436 2 2 1 3 308 383 166
437 2 2 1 3 116 347 290
438 2 2 1 3 238 358 326
439 2 2 1 3 274 299 108
440 2 2 1 3 212 303 211
441 2 2 1 3 210 221 195
442 2 2 1 3 143 351 145
443 2 2 1 3 124 305 260
444 2 2 1 3 155 167 159
445 2 2 1 3 190 197 196
446 2 2 1 3 174 331 159
447 2 2 1 3 148 351 143
448 2 2 1 3 235 373 312
449 2 2 1 3 63 291 64
450 2 2 1 3 106 339 311
451 2 2 1 3 224 226 225
452 2 2 1 3 83 125 84
453 2 2 1 3 77 275 102
454 2 2 1 3 203 204 202
455 2 2 1 3 4 397 42
456 2 2 1 3 43 397 4
457 2 2 1 3 145 151 150
458 2 2 1 3 28 398 3
459 2 2 1 3 3 398 27
460 2 2 1 3 149 155 154
461 2 2 1 3 229 296 230
462 2 2 1 3 1 399 49
463 2 2 1 3 6 399 1
464 2 2 1 3 2 400 20
465 2 2 1 3 21 400 2
466 2 2 1 3 318 348 207
467 2 2 1 3 187 188 185
468 2 2 1 3 316 388 259
469 2 2 1 3 281 297 280
470 2 2 1 3 62 126 63
471 2 2 1 3 205 206 204
472 2 2 1 3 146 149 147
473 2 2 1 3 151 160 152
474 2 2 1 3 105 311 241
475 2 2 1 3 163 393 139
476 2 2 1 3 160 229 161
477 2 2 1 3 167 168 159
478 2 2 1 3 250 353 277
479 2 2 1 3 138 163 139
480 2 2 1 3 157 390 158
481 2 2 1 3 222 335 209
482 2 2 1 3 155 159 154
483 2 2 1 3 292 357 344
484 2 2 1 3 191 192 186
485 2 2 1 3 252 332 254
486 2 2 1 3 84 369 85
487 2 2 1 3 229 230 161
488 2 2 1 3 312 376 12
489 2 2 1 3 189 190 188
490 2 2 1 3 355 385 309
491 2 2 1 3 149 154 153
492 2 2 1 3 74 273 75
493 2 2 1 3 119 421 415
494 2 2 1 3 273 294 99
495 2 2 1 3 92 108 93
496 2 2 1 3 96 138 97
497 2 2 1 3 145 150 146
498 2 2 1 3 160 161 152
499 2 2 1 3 98 175 73
500 2 2 1 3 314 419 359
501 2 2 1 3 197 199 198
502 2 2 1 3 213 324 228
503 2 2 1 3 219 220 210
504 2 2 1 3 303 363 348
505 2 2 1 3 199 212 211
506 2 2 1 3 151 152 150
507 2 2 1 3 98 334 208
508 2 2 1 3 173 310 278
509 2 2 1 3 320 414 321
510 2 2 1 3 199 213 212
511 2 2 1 3 193 201 192
512 2 2 1 3 105 239 69
513 2 2 1 3 145 146 144
514 2 2 1 3 178 181 180
515 2 2 1 3 54 112 55
516 2 2 1 3 60 304 128
517 2 2 1 3 190 200 197
518 2 2 1 3 79 103 80
519 2 2 1 3 108 357 292
520 2 2 1 3 207 348 215
521 2 2 1 3 254 332 319
522 2 2 1 3 209 219 210
523 2 2 1 3 213 228 212
524 2 2 1 3 211 348 318
525 2 2 1 3 309 385 216
526 2 2 1 3 280 297 111
527 2 2 1 3 98 208 176
528 2 2 1 3 221 349 195
529 2 2 1 3 187 189 188
530 2 2 1 3 207 214 206
531 2 2 1 3 289 411 343
532 2 2 1 3 303 348 211
533 2 2 1 3 58 123 59
534 2 2 1 3 88 124 89
535 2 2 1 3 349 394 200
536 2 2 1 3 217 320 193
537 2 2 1 3 331 380 154
538 2 2 1 3 187 194 189
539 2 2 1 3 355 403 104
540 2 2 1 3 18 421 119
541 2 2 1 3 245 246 106
542 2 2 1 3 133 387 323
543 2 2 1 3 340 379 298
544 2 2 1 3 183 203 202
545 2 2 1 3 205 318 207
546 2 2 1 3 322 397 43
547 2 2 1 3 276 377 275
548 2 2 1 3 12 376 11
549 2 2 1 3 217 386 343
550 2 2 1 3 209 210 195
551 2 2 1 3 181 184 182
552 2 2 1 3 162 375 152
553 2 2 1 3 98 176 175
554 2 2 1 3 94 292 107
555 2 2 1 3 194 209 195
556 2 2 1 3 255 357 299
557 2 2 1 3 221 394 349
558 2 2 1 3 111 295 53
559 2 2 1 3 176 177 175
560 2 2 1 3 205 207 206
561 2 2 1 3 288 289 271
562 2 2 1 3 267 380 331
563 2 2 1 3 110 282 82
564 2 2 1 3 149 336 155
565 2 2 1 3 178 180 179
566 2 2 1 3 194 195 189
567 2 2 1 3 184 186 185
568 2 2 1 3 66 106 67
569 2 2 1 3 310 352 264
570 2 2 1 3 209 335 219
571 2 2 1 3 176 178 177
572 2 2 1 3 87 305 88
573 2 2 1 3 184 185 182
574 2 2 1 3 186 187 185
575 2 2 1 3 143 145 144
576 2 2 1 3 203 205 204
577 2 2 1 3 101 280 51
578 2 2 1 3 53 295 54
579 2 2 1 3 178 179 177
580 2 2 1 3 181 182 180
581 2 2 1 3 95 293 96
582 2 2 1 3 150 336 146
583 2 2 1 3 105 240 239
584 2 2 1 3 141 148 143
585 2 2 1 3 61 285 62
586 2 2 1 3 85 127 86
587 2 2 1 3 82 282 83
588 2 2 1 3 64 120 65
589 2 2 1 3 336 375 283
590 2 2 1 3 69 239 70
591 2 2 1 3 77 102 78
592 2 2 1 3 90 109 91
593 2 2 1 3 56 113 57
594 2 2 1 3 146 336 149
595 2 2 1 3 90 258 109
596 2 2 1 3 160 374 229
597 2 2 1 3 193 320 201
598 2 2 1 3 346 396 222
599 2 2 1 3 226 233 232
600 2 2 1 3 123 330 304
601 2 2 1 3 180 183 179
602 2 2 1 3 145 351 151
603 2 2 1 3 139 140 100
604 2 2 1 3 239 355 104
605 2 2 1 3 172 350 297
606 2 2 1 3 183 238 203
607 2 2 1 3 56 360 113
608 2 2 1 3 319 416 148
609 2 2 1 3 207 215 214
610 2 2 1 3 123 304 59
611 2 2 1 3 139 393 141
612 2 2 1 3 157 417 390
613 2 2 1 3 380 417 157
614 2 2 1 3 112 360 55
615 2 2 1 3 135 384 327
616 2 2 1 3 83 282 125
617 2 2 1 3 64 291 120
618 2 2 1 3 103 298 80
619 2 2 1 3 276 420 377
620 2 2 1 3 312 373 234
621 2 2 1 3 62 285 126
622 2 2 1 3 105 241 240
623 2 2 1 3 85 369 127
624 2 2 1 3 274 325 299
625 2 2 1 3 246 339 106
626 2 2 1 3 162 423 333
627 2 2 1 3 212 347 303
628 2 2 1 3 153 380 157
629 2 2 1 3 298 379 110
630 2 2 1 3 344 402 378
631 2 2 1 3 334 403 208
632 2 2 1 3 143 144 142
633 2 2 1 3 124 258 89
634 2 2 1 3 320 321 201
635 2 2 1 3 96 293 138
636 2 2 1 3 208 404 356
637 2 2 1 3 198 389 196
638 2 2 1 3 178 356 181
639 2 2 1 3 264 405 310
640 2 2 1 3 166 395 308
641 2 2 1 3 54 295 112
642 2 2 1 3 104 403 334
643 2 2 1 3 270 271 246
644 2 2 1 3 148 416 351
645 2 2 1 3 279 404 309
646 2 2 1 3 164 416 332
647 2 2 1 3 128 285 61
648 2 2 1 3 190 349 200
649 2 2 1 3 106 311 67
650 2 2 1 3 141 142 140
651 2 2 1 3 351 416 164
652 2 2 1 3 315 316 259
653 2 2 1 3 291 409 120
654 2 2 1 3 189 349 190
655 2 2 1 3 141 143 142
656 2 2 1 3 88 305 124
657 2 2 1 3 27 398 323
658 2 2 1 3 126 291 63
659 2 2 1 3 139 141 140
660 2 2 1 3 228 347 212
661 2 2 1 3 214 342 224
662 2 2 1 3 161 423 162
663 2 2 1 3 49 399 327
664 2 2 1 3 236 382 101
665 2 2 1 3 234 367 338
666 2 2 1 3 111 350 295
667 2 2 1 3 127 244 243
668 2 2 1 3 329 400 21
669 2 2 1 3 199 424 213
670 2 2 1 3 134 397 322
671 2 2 1 3 187 346 194
672 2 2 1 3 311 339 241
673 2 2 1 3 332 416 319
674 2 2 1 3 233 312 234
675 2 2 1 3 299 357 108
676 2 2 1 3 271 339 246
677 2 2 1 3 42 397 134
678 2 2 1 3 195 349 189
679 2 2 1 3 113 263 262
680 2 2 1 3 133 398 28
681 2 2 1 3 242 364 305
682 2 2 1 3 124 260 259
683 2 2 1 3 112 412 360
684 2 2 1 3 125 369 84
685 2 2 1 3 192 346 186
686 2 2 1 3 205 371 318
687 2 2 1 3 128 304 287
688 2 2 1 3 164 374 160
689 2 2 1 3 102 250 78
690 2 2 1 3 135 399 6
691 2 2 1 3 20 400 136
692 2 2 1 3 110 338 282
693 2 2 1 3 317 413 131
694 2 2 1 3 270 288 271
695 2 2 1 3 150 375 336
696 2 2 1 3 103 340 298
697 2 2 1 3 240 355 239
698 2 2 1 3 113 360 263
699 2 2 1 3 186 346 187
700 2 2 1 3 124 259 258
701 2 2 1 3 127 369 244
702 2 2 1 3 152 375 150
703 2 2 1 3 277 340 103
704 2 2 1 3 268 415 374
705 2 2 1 3 126 368 291
706 2 2 1 3 323 398 133
707 2 2 1 3 387 419 323
708 2 2 1 3 176 356 178
709 2 2 1 3 123 366 330
710 2 2 1 3 208 356 176
711 2 2 1 3 264 265 262
712 2 2 1 3 101 281 280
713 2 2 1 3 183 358 238
714 2 2 1 3 107 378 293
715 2 2 1 3 215 342 214
716 2 2 1 3 182 358 180
717 2 2 1 3 385 386 217
718 2 2 1 3 144 395 142
719 2 2 1 3 275 377 102
720 2 2 1 3 327 399 135
721 2 2 1 3 323 419 314
722 2 2 1 3 136 400 329
723 2 2 1 3 154 380 153
724 2 2 1 3 102 353 250
725 2 2 1 3 128 287 286
726 2 2 1 3 173 370 310
727 2 2 1 3 339 343 241
728 2 2 1 3 345 424 200
729 2 2 1 3 180 358 183
730 2 2 1 3 343 411 217
731 2 2 1 3 219 381 220
732 2 2 1 3 109 274 91
733 2 2 1 3 293 378 163
734 2 2 1 3 354 364 243
735 2 2 1 3 372 407 354
736 2 2 1 3 233 392 376
737 2 2 1 3 200 424 197
738 2 2 1 3 362 422 265
739 2 2 1 3 310 405 278
740 2 2 1 3 233 376 312
741 2 2 1 3 141 393 148
742 2 2 1 3 168 387 174
743 2 2 1 3 122 406 329
744 2 2 1 3 285 365 126
745 2 2 1 3 269 270 246
746 2 2 1 3 128 286 285
747 2 2 1 3 309 403 355
748 2 2 1 3 418 422 362
749 2 2 1 3 292 344 107
750 2 2 1 3 245 269 246
751 2 2 1 3 213 424 345
752 2 2 1 3 403 404 208
753 2 2 1 3 297 350 111
754 2 2 1 3 282 367 125
755 2 2 1 3 390 417 249
756 2 2 1 3 125 391 369
757 2 2 1 3 113 261 57
758 2 2 1 3 324 384 228
759 2 2 1 3 120 245 65
760 2 2 1 3 265 366 262
761 2 2 1 3 260 364 354
762 2 2 1 3 120 409 269
763 2 2 1 3 372 373 235
764 2 2 1 3 257 402 344
765 2 2 1 3 234 391 367
766 2 2 1 3 127 242 86
767 2 2 1 3 109 325 274
768 2 2 1 3 263 264 262
769 2 2 1 3 238 371 203
770 2 2 1 3 262 366 261
771 2 2 1 3 203 371 205
772 2 2 1 3 305 364 260
773 2 2 1 3 267 417 380
774 2 2 1 3 158 390 173
775 2 2 1 3 201 396 192
776 2 2 1 3 170 426 410
777 2 2 1 3 304 330 287
778 2 2 1 3 241 386 240
779 2 2 1 3 167 427 359
780 2 2 1 3 163 402 393
781 2 2 1 3 142 395 166
782 2 2 1 3 406 423 230
783 2 2 1 3 243 364 242
784 2 2 1 3 343 386 241
785 2 2 1 3 113 262 261
786 2 2 1 3 260 315 259
787 2 2 1 3 192 396 346
788 2 2 1 3 295 401 112
789 2 2 1 3 244 372 243
790 2 2 1 3 110 379 338
791 2 2 1 3 283 427 167
792 2 2 1 3 230 423 161
793 2 2 1 3 377 420 237
794 2 2 1 3 350 401 295
795 2 2 1 3 287 361 286
796 2 2 1 3 374 415 229
797 2 2 1 3 286 365 285
798 2 2 1 3 244 373 372
799 2 2 1 3 259 388 258
800 2 2 1 3 217 411 320
801 2 2 1 3 169 418 362
802 2 2 1 3 240 385 355
803 2 2 1 3 127 243 242
804 2 2 1 3 102 377 353
805 2 2 1 3 338 367 282
806 2 2 1 3 365 368 126
807 2 2 1 3 173 390 370
808 2 2 1 3 120 269 245
809 2 2 1 3 101 382 281
810 2 2 1 3 258 388 109
811 2 2 1 3 197 424 199
812 2 2 1 3 238 389 371
813 2 2 1 3 240 386 385
814 2 2 1 3 271 343 339
815 2 2 1 3 227 413 317
816 2 2 1 3 373 391 234
817 2 2 1 3 353 377 237
818 2 2 1 3 344 378 107
819 2 2 1 3 360 412 263
820 2 2 1 3 401 412 112
821 2 2 1 3 166 383 382
822 2 2 1 3 266 409 368
823 2 2 1 3 330 418 287
824 2 2 1 3 338 379 232
825 2 2 1 3 382 383 281
826 2 2 1 3 244 391 373
827 2 2 1 3 269 409 408
828 2 2 1 3 269 408 270
829 2 2 1 3 109 388 325
830 2 2 1 3 369 391 244
831 2 2 1 3 368 409 291
832 2 2 1 3 378 402 163
833 2 2 1 3 263 405 264
834 2 2 1 3 226 392 233
835 2 2 1 3 408 409 266
836 2 2 1 3 287 418 361
837 2 2 1 3 168 419 387
838 2 2 1 3 367 391 125
839 2 2 1 3 370 390 249
840 2 2 1 3 263 412 405
841 2 2 1 3 286 410 365
842 2 2 1 3 361 410 286
843 2 2 1 3 309 404 403
844 2 2 1 3 365 426 368
845 2 2 1 3 265 422 366
846 2 2 1 3 405 412 278
847 2 2 1 3 235 407 372
848 2 2 1 3 354 407 137
849 2 2 1 3 278 412 401
850 2 2 1 3 330 422 418
851 2 2 1 3 361 418 169
852 2 2 1 3 410 426 365
853 2 2 1 3 368 426 266
854 2 2 1 3 366 422 330
$EndElements
